<svg width="1648" height="619" viewBox="0 0 1648 619" fill="none" xmlns="http://www.w3.org/2000/svg">
<rect width="1648" height="618.969" rx="20" fill="#ffffff"/>
<path d="M937.158 211.626C935.97 211.626 934.889 211.528 933.915 211.333C932.94 211.156 932.214 210.961 931.735 210.749L933.649 204.237C935.102 204.627 936.396 204.795 937.53 204.742C938.664 204.689 939.665 204.263 940.533 203.466C941.419 202.669 942.199 201.366 942.872 199.559L943.856 196.848L928.918 155.49H937.423L947.763 187.173H948.188L958.527 155.49H967.059L950.235 201.765C949.455 203.891 948.463 205.69 947.258 207.16C946.053 208.649 944.617 209.765 942.952 210.509C941.286 211.254 939.355 211.626 937.158 211.626Z" fill="#0E0E0E"/>
<path d="M887.308 196.315V141.881H895.255V162.108H895.733C896.194 161.257 896.858 160.274 897.727 159.157C898.595 158.041 899.8 157.067 901.341 156.234C902.883 155.383 904.921 154.958 907.455 154.958C910.751 154.958 913.692 155.791 916.279 157.456C918.866 159.122 920.895 161.523 922.366 164.659C923.854 167.796 924.598 171.57 924.598 175.982C924.598 180.394 923.863 184.177 922.392 187.332C920.922 190.468 918.902 192.887 916.332 194.588C913.763 196.271 910.83 197.113 907.534 197.113C905.054 197.113 903.025 196.696 901.448 195.864C899.888 195.031 898.666 194.056 897.78 192.94C896.894 191.823 896.212 190.831 895.733 189.963H895.069V196.315H887.308ZM895.095 175.902C895.095 178.773 895.512 181.289 896.345 183.451C897.177 185.613 898.382 187.305 899.959 188.528C901.536 189.733 903.468 190.335 905.754 190.335C908.128 190.335 910.113 189.706 911.707 188.448C913.302 187.172 914.507 185.444 915.322 183.265C916.155 181.085 916.571 178.631 916.571 175.902C916.571 173.209 916.164 170.79 915.349 168.646C914.551 166.502 913.347 164.81 911.734 163.57C910.139 162.329 908.146 161.709 905.754 161.709C903.45 161.709 901.501 162.303 899.906 163.49C898.329 164.677 897.133 166.334 896.318 168.46C895.503 170.587 895.095 173.067 895.095 175.902Z" fill="#0E0E0E"/>
<path d="M857.326 165.458L850.123 166.734C849.822 165.812 849.343 164.935 848.688 164.102C848.05 163.269 847.182 162.587 846.083 162.056C844.984 161.524 843.611 161.258 841.963 161.258C839.713 161.258 837.835 161.763 836.328 162.773C834.822 163.766 834.069 165.05 834.069 166.627C834.069 167.992 834.574 169.09 835.584 169.923C836.594 170.756 838.224 171.438 840.475 171.97L846.96 173.458C850.717 174.326 853.516 175.664 855.359 177.472C857.202 179.279 858.123 181.627 858.123 184.515C858.123 186.961 857.415 189.14 855.997 191.054C854.597 192.95 852.639 194.438 850.123 195.519C847.625 196.6 844.727 197.14 841.432 197.14C836.86 197.14 833.13 196.166 830.242 194.217C827.353 192.25 825.581 189.459 824.926 185.844L832.607 184.675C833.086 186.677 834.069 188.192 835.558 189.22C837.046 190.23 838.986 190.735 841.378 190.735C843.983 190.735 846.065 190.194 847.625 189.113C849.184 188.015 849.964 186.677 849.964 185.1C849.964 183.824 849.485 182.752 848.528 181.884C847.589 181.016 846.145 180.36 844.196 179.917L837.285 178.402C833.476 177.534 830.658 176.152 828.833 174.256C827.026 172.36 826.122 169.959 826.122 167.053C826.122 164.643 826.795 162.534 828.142 160.727C829.489 158.919 831.349 157.511 833.724 156.501C836.098 155.473 838.818 154.959 841.883 154.959C846.296 154.959 849.769 155.916 852.303 157.83C854.836 159.726 856.511 162.268 857.326 165.458Z" fill="#0E0E0E"/>
<path d="M818.6 155.49V161.869H796.3V155.49H818.6ZM802.28 145.709H810.227V184.329C810.227 185.87 810.458 187.031 810.918 187.811C811.379 188.573 811.973 189.095 812.699 189.379C813.443 189.645 814.25 189.778 815.118 189.778C815.756 189.778 816.314 189.733 816.792 189.645C817.271 189.556 817.643 189.485 817.909 189.432L819.344 195.997C818.883 196.174 818.228 196.352 817.377 196.529C816.527 196.724 815.463 196.83 814.188 196.848C812.097 196.883 810.148 196.511 808.34 195.731C806.533 194.952 805.071 193.747 803.955 192.117C802.838 190.486 802.28 188.44 802.28 185.977V145.709Z" fill="#0E0E0E"/>
<path d="M762.757 172.076V196.316H754.81V155.491H762.438V162.135H762.943C763.882 159.974 765.353 158.237 767.355 156.926C769.375 155.615 771.918 154.959 774.983 154.959C777.765 154.959 780.202 155.544 782.293 156.713C784.384 157.865 786.005 159.584 787.157 161.87C788.308 164.155 788.884 166.982 788.884 170.348V196.316H780.937V171.305C780.937 168.346 780.166 166.034 778.625 164.368C777.083 162.685 774.966 161.843 772.272 161.843C770.429 161.843 768.79 162.242 767.355 163.039C765.937 163.836 764.812 165.006 763.979 166.548C763.164 168.071 762.757 169.914 762.757 172.076Z" fill="#0E0E0E"/>
<path d="M728.476 197.14C724.454 197.14 720.99 196.281 718.084 194.562C715.196 192.826 712.963 190.389 711.386 187.253C709.827 184.099 709.047 180.404 709.047 176.169C709.047 171.987 709.827 168.302 711.386 165.112C712.963 161.923 715.16 159.433 717.978 157.643C720.813 155.854 724.126 154.959 727.918 154.959C730.222 154.959 732.454 155.34 734.616 156.102C736.778 156.864 738.718 158.06 740.437 159.69C742.156 161.32 743.511 163.438 744.504 166.043C745.496 168.63 745.992 171.775 745.992 175.478V178.296H713.539V172.342H738.204C738.204 170.251 737.779 168.399 736.929 166.787C736.078 165.157 734.882 163.872 733.34 162.933C731.817 161.994 730.027 161.524 727.971 161.524C725.739 161.524 723.79 162.073 722.124 163.172C720.476 164.253 719.2 165.67 718.296 167.425C717.411 169.161 716.967 171.048 716.967 173.086V177.737C716.967 180.466 717.446 182.788 718.403 184.701C719.377 186.615 720.733 188.077 722.469 189.087C724.206 190.079 726.235 190.575 728.556 190.575C730.062 190.575 731.436 190.363 732.676 189.937C733.916 189.494 734.988 188.839 735.892 187.971C736.796 187.102 737.487 186.03 737.965 184.754L745.487 186.11C744.885 188.325 743.804 190.265 742.244 191.931C740.703 193.579 738.763 194.863 736.424 195.785C734.102 196.689 731.453 197.14 728.476 197.14Z" fill="#0E0E0E"/>
<path d="M644.731 196.316V155.491H652.36V162.135H652.865C653.715 159.885 655.106 158.131 657.038 156.873C658.969 155.597 661.282 154.959 663.975 154.959C666.704 154.959 668.99 155.597 670.832 156.873C672.693 158.149 674.066 159.903 674.952 162.135H675.377C676.352 159.956 677.902 158.219 680.029 156.926C682.155 155.615 684.689 154.959 687.631 154.959C691.334 154.959 694.355 156.12 696.694 158.441C699.051 160.762 700.229 164.262 700.229 168.94V196.316H692.282V169.684C692.282 166.92 691.529 164.917 690.023 163.677C688.517 162.437 686.718 161.816 684.627 161.816C682.04 161.816 680.029 162.614 678.594 164.209C677.158 165.786 676.441 167.815 676.441 170.295V196.316H668.52V169.179C668.52 166.964 667.829 165.183 666.447 163.836C665.065 162.49 663.266 161.816 661.051 161.816C659.545 161.816 658.154 162.215 656.878 163.013C655.62 163.792 654.601 164.882 653.822 166.282C653.06 167.682 652.679 169.303 652.679 171.146V196.316H644.731Z" fill="#0E0E0E"/>
<path d="M607.361 211.626C606.173 211.626 605.093 211.528 604.118 211.333C603.143 211.156 602.417 210.961 601.939 210.749L603.852 204.237C605.305 204.627 606.599 204.795 607.733 204.742C608.867 204.689 609.868 204.263 610.736 203.466C611.622 202.669 612.402 201.366 613.075 199.559L614.059 196.848L599.121 155.49H607.626L617.966 187.173H618.391L628.73 155.49H637.262L620.438 201.765C619.658 203.891 618.666 205.69 617.461 207.16C616.256 208.649 614.821 209.765 613.155 210.509C611.489 211.254 609.558 211.626 607.361 211.626Z" fill="#0E0E0E"/>
<path d="M573.066 197.22C570.479 197.22 568.14 196.742 566.049 195.785C563.958 194.81 562.302 193.402 561.079 191.559C559.874 189.716 559.271 187.457 559.271 184.781C559.271 182.477 559.714 180.581 560.6 179.093C561.486 177.605 562.682 176.426 564.189 175.558C565.695 174.69 567.378 174.034 569.239 173.591C571.099 173.148 572.995 172.811 574.927 172.581C577.372 172.298 579.357 172.067 580.88 171.89C582.404 171.695 583.512 171.385 584.203 170.96C584.894 170.534 585.24 169.843 585.24 168.887V168.701C585.24 166.379 584.584 164.581 583.273 163.305C581.979 162.029 580.048 161.391 577.478 161.391C574.803 161.391 572.694 161.985 571.152 163.172C569.629 164.341 568.574 165.644 567.99 167.079L560.521 165.378C561.407 162.897 562.7 160.895 564.401 159.371C566.12 157.83 568.096 156.713 570.328 156.022C572.561 155.313 574.909 154.959 577.372 154.959C579.002 154.959 580.73 155.154 582.555 155.544C584.398 155.916 586.117 156.607 587.711 157.617C589.324 158.627 590.644 160.071 591.672 161.949C592.699 163.81 593.213 166.229 593.213 169.206V196.316H585.452V190.735H585.133C584.619 191.763 583.849 192.773 582.821 193.765C581.793 194.757 580.473 195.581 578.86 196.237C577.248 196.892 575.317 197.22 573.066 197.22ZM574.794 190.841C576.991 190.841 578.869 190.407 580.429 189.539C582.006 188.67 583.202 187.536 584.017 186.137C584.85 184.719 585.266 183.204 585.266 181.591V176.329C584.983 176.612 584.433 176.878 583.618 177.126C582.821 177.357 581.908 177.56 580.88 177.737C579.853 177.897 578.852 178.048 577.877 178.189C576.902 178.313 576.087 178.42 575.432 178.508C573.89 178.703 572.481 179.031 571.206 179.492C569.948 179.952 568.938 180.617 568.176 181.485C567.431 182.336 567.059 183.47 567.059 184.887C567.059 186.854 567.786 188.343 569.239 189.353C570.692 190.345 572.543 190.841 574.794 190.841Z" fill="#0E0E0E"/>
<path d="M514.99 211.626V155.491H522.751V162.109H523.416C523.877 161.258 524.541 160.275 525.409 159.159C526.278 158.042 527.483 157.068 529.024 156.235C530.566 155.384 532.603 154.959 535.137 154.959C538.433 154.959 541.375 155.792 543.962 157.457C546.549 159.123 548.578 161.524 550.048 164.66C551.537 167.797 552.281 171.571 552.281 175.983C552.281 180.395 551.546 184.179 550.075 187.333C548.604 190.469 546.584 192.888 544.015 194.589C541.446 196.272 538.513 197.114 535.217 197.114C532.736 197.114 530.708 196.697 529.13 195.865C527.571 195.032 526.349 194.057 525.463 192.941C524.577 191.825 523.894 190.832 523.416 189.964H522.937V211.626H514.99ZM522.778 175.904C522.778 178.774 523.194 181.29 524.027 183.452C524.86 185.614 526.065 187.306 527.642 188.529C529.219 189.734 531.15 190.336 533.436 190.336C535.811 190.336 537.795 189.707 539.39 188.449C540.985 187.173 542.19 185.445 543.005 183.266C543.838 181.086 544.254 178.632 544.254 175.904C544.254 173.21 543.847 170.791 543.031 168.647C542.234 166.503 541.029 164.811 539.417 163.571C537.822 162.33 535.828 161.71 533.436 161.71C531.133 161.71 529.184 162.304 527.589 163.491C526.012 164.678 524.816 166.335 524.001 168.461C523.186 170.588 522.778 173.068 522.778 175.904Z" fill="#0E0E0E"/>
<path d="M468.849 197.14C464.827 197.14 461.363 196.281 458.457 194.562C455.569 192.826 453.336 190.389 451.759 187.253C450.2 184.099 449.42 180.404 449.42 176.169C449.42 171.987 450.2 168.302 451.759 165.112C453.336 161.923 455.533 159.433 458.351 157.643C461.186 155.854 464.499 154.959 468.291 154.959C470.595 154.959 472.827 155.34 474.989 156.102C477.151 156.864 479.091 158.06 480.81 159.69C482.529 161.32 483.884 163.438 484.877 166.043C485.869 168.63 486.365 171.775 486.365 175.478V178.296H453.912V172.342H478.577C478.577 170.251 478.152 168.399 477.302 166.787C476.451 165.157 475.255 163.872 473.713 162.933C472.19 161.994 470.4 161.524 468.344 161.524C466.112 161.524 464.163 162.073 462.497 163.172C460.849 164.253 459.573 165.67 458.67 167.425C457.784 169.161 457.341 171.048 457.341 173.086V177.737C457.341 180.466 457.819 182.788 458.776 184.701C459.75 186.615 461.106 188.077 462.842 189.087C464.579 190.079 466.608 190.575 468.929 190.575C470.435 190.575 471.809 190.363 473.049 189.937C474.289 189.494 475.361 188.839 476.265 187.971C477.169 187.102 477.86 186.03 478.338 184.754L485.86 186.11C485.258 188.325 484.177 190.265 482.618 191.931C481.076 193.579 479.136 194.863 476.797 195.785C474.475 196.689 471.826 197.14 468.849 197.14Z" fill="#0E0E0E"/>
<path d="M423.989 196.316V155.49H431.671V161.976H432.096C432.84 159.778 434.151 158.051 436.03 156.793C437.926 155.517 440.07 154.879 442.462 154.879C442.958 154.879 443.543 154.897 444.216 154.932C444.907 154.968 445.448 155.012 445.837 155.065V162.667C445.519 162.578 444.951 162.481 444.136 162.374C443.321 162.25 442.506 162.188 441.691 162.188C439.813 162.188 438.138 162.587 436.668 163.384C435.215 164.164 434.063 165.254 433.212 166.654C432.362 168.036 431.936 169.613 431.936 171.385V196.316H423.989Z" fill="#0E0E0E"/>
<path d="M405.337 179.385V155.49H413.311V196.316H405.497V189.246H405.072C404.132 191.426 402.626 193.242 400.553 194.695C398.498 196.13 395.937 196.848 392.872 196.848C390.249 196.848 387.928 196.272 385.908 195.12C383.905 193.951 382.328 192.223 381.177 189.937C380.043 187.651 379.476 184.825 379.476 181.458V155.49H387.423V180.501C387.423 183.283 388.194 185.498 389.735 187.146C391.277 188.794 393.279 189.618 395.742 189.618C397.231 189.618 398.71 189.246 400.181 188.502C401.669 187.758 402.901 186.632 403.875 185.126C404.868 183.62 405.355 181.706 405.337 179.385Z" fill="#0E0E0E"/>
<path d="M354.206 197.14C350.254 197.14 346.852 196.246 343.999 194.456C341.164 192.648 338.985 190.159 337.461 186.987C335.937 183.815 335.175 180.183 335.175 176.09C335.175 171.943 335.954 168.284 337.514 165.112C339.073 161.923 341.27 159.433 344.105 157.643C346.941 155.854 350.281 154.959 354.126 154.959C357.227 154.959 359.991 155.535 362.419 156.687C364.846 157.821 366.804 159.415 368.293 161.471C369.799 163.526 370.694 165.927 370.977 168.674H363.243C362.817 166.76 361.843 165.112 360.319 163.73C358.813 162.348 356.793 161.657 354.259 161.657C352.044 161.657 350.104 162.242 348.438 163.411C346.79 164.563 345.505 166.211 344.584 168.355C343.662 170.481 343.202 172.998 343.202 175.904C343.202 178.88 343.654 181.45 344.557 183.612C345.461 185.773 346.737 187.448 348.385 188.635C350.05 189.822 352.008 190.416 354.259 190.416C355.765 190.416 357.129 190.141 358.352 189.592C359.592 189.025 360.629 188.219 361.462 187.173C362.312 186.128 362.906 184.87 363.243 183.399H370.977C370.694 186.039 369.834 188.396 368.399 190.469C366.964 192.542 365.041 194.172 362.631 195.36C360.239 196.547 357.431 197.14 354.206 197.14Z" fill="#0E0E0E"/>
<path d="M310.676 197.14C306.653 197.14 303.189 196.281 300.283 194.562C297.395 192.826 295.162 190.389 293.585 187.253C292.026 184.099 291.246 180.404 291.246 176.169C291.246 171.987 292.026 168.302 293.585 165.112C295.162 161.923 297.359 159.433 300.177 157.643C303.012 155.854 306.325 154.959 310.117 154.959C312.421 154.959 314.654 155.34 316.815 156.102C318.977 156.864 320.918 158.06 322.636 159.69C324.355 161.32 325.711 163.438 326.703 166.043C327.695 168.63 328.191 171.775 328.191 175.478V178.296H295.738V172.342H320.404C320.404 170.251 319.978 168.399 319.128 166.787C318.277 165.157 317.081 163.872 315.54 162.933C314.016 161.994 312.226 161.524 310.171 161.524C307.938 161.524 305.989 162.073 304.323 163.172C302.675 164.253 301.399 165.67 300.496 167.425C299.61 169.161 299.167 171.048 299.167 173.086V177.737C299.167 180.466 299.645 182.788 300.602 184.701C301.577 186.615 302.932 188.077 304.669 189.087C306.405 190.079 308.434 190.575 310.755 190.575C312.262 190.575 313.635 190.363 314.875 189.937C316.116 189.494 317.188 188.839 318.091 187.971C318.995 187.102 319.686 186.03 320.164 184.754L327.686 186.11C327.084 188.325 326.003 190.265 324.444 191.931C322.902 193.579 320.962 194.863 318.623 195.785C316.302 196.689 313.652 197.14 310.676 197.14Z" fill="#0E0E0E"/>
<path d="M275.239 156.181C274.955 153.664 273.786 151.715 271.73 150.333C269.675 148.933 267.088 148.233 263.969 148.233C261.736 148.233 259.805 148.588 258.175 149.297C256.544 149.988 255.277 150.945 254.374 152.167C253.488 153.372 253.045 154.745 253.045 156.287C253.045 157.58 253.346 158.697 253.948 159.636C254.569 160.575 255.375 161.364 256.367 162.002C257.377 162.622 258.458 163.144 259.61 163.57C260.762 163.977 261.869 164.314 262.932 164.58L268.248 165.962C269.985 166.387 271.766 166.963 273.591 167.689C275.416 168.416 277.108 169.373 278.667 170.56C280.227 171.747 281.485 173.218 282.442 174.972C283.416 176.726 283.903 178.826 283.903 181.272C283.903 184.355 283.106 187.092 281.511 189.485C279.934 191.877 277.64 193.764 274.627 195.146C271.633 196.528 268.009 197.219 263.756 197.219C259.681 197.219 256.155 196.572 253.178 195.279C250.201 193.985 247.871 192.151 246.187 189.777C244.504 187.385 243.574 184.55 243.396 181.272H251.636C251.796 183.238 252.433 184.877 253.55 186.189C254.684 187.482 256.128 188.448 257.882 189.086C259.654 189.706 261.594 190.016 263.703 190.016C266.024 190.016 268.089 189.653 269.896 188.926C271.721 188.182 273.156 187.154 274.202 185.843C275.247 184.514 275.77 182.964 275.77 181.192C275.77 179.579 275.309 178.259 274.388 177.231C273.484 176.204 272.253 175.353 270.693 174.68C269.152 174.007 267.406 173.413 265.457 172.899L259.025 171.145C254.666 169.958 251.211 168.212 248.659 165.909C246.125 163.605 244.858 160.557 244.858 156.765C244.858 153.629 245.709 150.891 247.41 148.552C249.111 146.213 251.415 144.397 254.321 143.104C257.227 141.792 260.505 141.137 264.155 141.137C267.841 141.137 271.092 141.783 273.91 143.077C276.745 144.371 278.977 146.151 280.608 148.419C282.238 150.67 283.088 153.257 283.159 156.181H275.239Z" fill="#0E0E0E"/>
<path d="M159.995 113.322C170.305 113.322 178.652 121.658 178.652 131.953V148.992H192.286C193.779 148.992 194.99 150.201 194.99 151.692V207.832C194.99 209.323 193.779 210.533 192.286 210.533H127.704C126.211 210.533 125 209.323 125 207.832V151.692C125 150.201 126.211 148.992 127.704 148.992H141.338V131.953C141.338 121.658 149.686 113.322 159.995 113.322ZM182.189 164.234C180.936 163.038 178.918 163.038 177.664 164.234L155.508 185.38L145.562 175.887C144.308 174.69 142.289 174.69 141.035 175.887C139.762 177.103 139.762 179.09 141.035 180.306L153.245 191.959C154.499 193.155 156.517 193.155 157.771 191.959L182.189 168.653C183.464 167.437 183.464 165.45 182.189 164.234ZM159.995 118.723C152.672 118.723 146.746 124.641 146.746 131.953V148.992H173.244V131.953C173.244 124.641 167.318 118.723 159.995 118.723Z" fill="#0E0E0E"/>
<path d="M1407.49 125.16C1408.34 124.777 1409.3 125.397 1409.3 126.329V137.022C1409.3 137.542 1408.98 138.011 1408.5 138.208L1397.42 142.762C1396.58 143.109 1395.65 142.488 1395.65 141.575V131.338C1395.65 130.834 1395.94 130.377 1396.4 130.169L1407.49 125.16Z" fill="#E62A97"/>
<path d="M1502.06 200.25C1488.6 200.25 1480.13 193.137 1477.52 183.622C1477.31 182.84 1477.92 182.095 1478.73 182.095H1489.08C1489.67 182.095 1490.17 182.499 1490.37 183.053C1492.03 187.761 1496.58 189.772 1502.06 189.772C1507.06 189.772 1509.77 187.49 1509.77 184.274C1509.77 182.095 1508 180.228 1504.35 179.294L1493.2 176.7C1483.2 174.314 1478.1 169.127 1478.1 160.932C1478.1 150.661 1486.64 144.022 1498.2 144.022C1511.29 144.022 1519.48 151.353 1521.58 160.916C1521.75 161.683 1521.15 162.384 1520.36 162.384H1510.03C1509.45 162.384 1508.94 161.986 1508.75 161.436C1507 156.523 1502.32 154.5 1498.1 154.5C1493.73 154.5 1491.43 156.678 1491.43 159.479C1491.43 162.28 1493.62 164.148 1497.89 165.185L1508.21 167.675C1518.1 170.061 1523 175.248 1523 183.236C1523 192.884 1515.08 200.25 1502.06 200.25Z" fill="#0E0E0E"/>
<path d="M1420.17 179.502V151.024C1420.17 150.504 1420.48 150.035 1420.97 149.837L1432.05 145.284C1432.89 144.937 1433.82 145.558 1433.82 146.47V176.804C1433.82 183.444 1438.3 188.32 1444.96 188.32C1451.63 188.32 1456.22 183.651 1456.22 176.804V151.024C1456.22 150.504 1456.53 150.035 1457.01 149.837L1468.09 145.284C1468.94 144.937 1469.86 145.558 1469.86 146.47V197.722C1469.86 198.431 1469.29 199.005 1468.58 199.005H1457.5C1456.79 199.005 1456.22 198.431 1456.22 197.722V194.233C1452.47 198.071 1447.26 200.25 1441.42 200.25C1428.82 200.25 1420.17 191.121 1420.17 179.502Z" fill="#0E0E0E"/>
<path d="M1408.01 199.005C1408.72 199.005 1409.3 198.431 1409.3 197.722V146.47C1409.3 145.558 1408.37 144.937 1407.53 145.284L1396.44 149.837C1395.96 150.035 1395.65 150.504 1395.65 151.024V197.722C1395.65 198.431 1396.22 199.005 1396.93 199.005H1408.01Z" fill="#0E0E0E"/>
<path d="M1313.52 199.005C1314.22 199.005 1314.8 198.431 1314.8 197.722V167.26C1314.8 160.413 1319.17 156.056 1325.53 156.056C1331.88 156.056 1336.26 160.621 1336.26 167.26V197.722C1336.26 198.431 1336.83 199.005 1337.54 199.005H1348.52C1349.23 199.005 1349.8 198.431 1349.8 197.722V167.26C1349.8 160.413 1354.28 156.056 1360.53 156.056C1366.89 156.056 1371.26 160.621 1371.26 167.26V197.722C1371.26 198.431 1371.84 199.005 1372.55 199.005H1383.52C1384.23 199.005 1384.81 198.431 1384.81 197.722V164.459C1384.81 152.944 1376.58 143.918 1364.28 143.918C1356.99 143.918 1350.64 147.445 1346.99 153.359C1343.55 147.653 1337.2 143.918 1329.28 143.918C1323.65 143.918 1318.44 146.097 1314.8 149.728V146.653C1314.8 145.945 1314.22 145.37 1313.52 145.37H1302.54C1301.83 145.37 1301.25 145.945 1301.25 146.653V197.722C1301.25 198.431 1301.83 199.005 1302.54 199.005H1313.52Z" fill="#0E0E0E"/>
<path fill-rule="evenodd" clip-rule="evenodd" d="M1238.06 179.237C1234.18 164.807 1242.35 149.093 1257.75 144.985C1273.35 140.823 1287.52 149.394 1291.86 165.527L1292.55 168.093C1292.73 168.779 1292.33 169.483 1291.64 169.666L1252.73 180.048C1256.25 186.305 1263.21 189.712 1270.45 187.779C1274.2 186.778 1277.16 185.05 1279.46 182.194C1279.72 181.878 1280.1 181.684 1280.5 181.684H1291.42C1292.32 181.684 1292.94 182.591 1292.56 183.411C1289.03 191.033 1282.57 196.575 1273.57 198.975C1257.67 203.217 1242.32 195.069 1238.06 179.237ZM1260.47 156.289C1254.33 157.927 1250.35 163.177 1250.24 169.974L1276.9 162.858C1273.27 156.955 1266.81 154.597 1260.47 156.289Z" fill="#0E0E0E"/>
<path fill-rule="evenodd" clip-rule="evenodd" d="M1196.93 144.985C1181.53 149.093 1173.36 164.807 1177.24 179.237C1181.5 195.069 1196.85 203.217 1212.75 198.975C1221.75 196.575 1228.21 191.033 1231.74 183.411C1232.12 182.591 1231.5 181.684 1230.6 181.684H1219.68C1219.28 181.684 1218.9 181.878 1218.64 182.194C1216.34 185.05 1213.38 186.778 1209.63 187.779C1202.39 189.712 1195.43 186.305 1191.91 180.048L1230.82 169.666C1231.51 169.483 1231.91 168.779 1231.73 168.093L1231.04 165.527C1226.7 149.394 1212.53 140.823 1196.93 144.985ZM1189.42 169.974C1189.53 163.177 1193.51 157.927 1199.65 156.289C1205.99 154.597 1212.45 156.955 1216.08 162.858L1189.42 169.974Z" fill="#0E0E0E"/>
<path d="M1174.46 156.018C1174.46 156.727 1173.88 157.301 1173.17 157.301H1169.56C1163.1 157.301 1158.1 161.969 1158.1 170.165V197.722C1158.1 198.431 1157.52 199.005 1156.82 199.005H1145.73C1145.03 199.005 1144.45 198.431 1144.45 197.722V146.653C1144.45 145.945 1145.03 145.371 1145.73 145.371H1156.71C1157.42 145.371 1157.99 145.945 1157.99 146.653V151.18C1160.7 147.238 1164.97 144.852 1170.81 144.852H1173.17C1173.88 144.852 1174.46 145.426 1174.46 146.135V156.018Z" fill="#0E0E0E"/>
<path d="M1091.16 197.722C1091.16 198.431 1091.73 199.005 1092.44 199.005H1103.94C1104.65 199.005 1105.22 198.431 1105.22 197.722V168.609H1134.78C1135.49 168.609 1136.06 168.034 1136.06 167.326V157.961C1136.06 157.253 1135.49 156.678 1134.78 156.678H1105.22V138.627H1135.82C1136.53 138.627 1137.1 138.053 1137.1 137.345V127.668C1137.1 126.96 1136.53 126.386 1135.82 126.386H1092.44C1091.73 126.386 1091.16 126.96 1091.16 127.668V162.695V197.722Z" fill="#0E0E0E"/>
<path d="M1016.12 132.835C1016.12 132.022 1016.55 131.271 1017.26 130.867L1074.94 97.8059C1075.8 97.3158 1076.86 97.9331 1076.86 98.9188L1076.86 121.115C1076.86 121.928 1076.43 122.679 1075.72 123.083L1018.04 156.144C1017.18 156.634 1016.12 156.017 1016.12 155.031L1016.12 132.835Z" fill="#6753FF"/>
<path d="M1016.12 164.88C1016.12 164.07 1016.55 163.322 1017.25 162.916L1055.2 140.934C1056.05 140.439 1057.12 141.056 1057.12 142.044L1057.12 164.235C1057.12 165.044 1056.69 165.792 1055.99 166.198L1018.04 188.181C1017.19 188.676 1016.12 188.059 1016.12 187.071L1016.12 164.88Z" fill="#902AF5"/>
<path d="M1018.32 196.658C1017.39 196.217 1017.33 194.911 1018.22 194.39L1038.54 182.528C1039.4 182.029 1040.47 182.646 1040.47 183.636L1040.47 205.102C1040.47 206.043 1039.49 206.664 1038.64 206.261L1018.32 196.658Z" fill="#E62A97"/>
<path d="M1523 299.352V302.352H125V299.352H1523Z" fill="#C6C6D0"/>
<path d="M1045.72 461.84H1056.19C1056.48 461.84 1057.18 461.74 1057.48 461.74C1059.47 461.341 1061.17 459.547 1061.17 457.056C1061.17 454.664 1059.47 452.869 1057.48 452.371C1057.18 452.271 1056.58 452.271 1056.19 452.271H1045.72V461.84Z" fill="url(#paint0_linear_7203_9886)"/>
<path d="M1054.99 395.76C1045.02 395.76 1036.85 403.833 1036.85 413.899V432.736H1062.46C1063.06 432.736 1063.76 432.736 1064.26 432.836C1070.04 433.135 1074.32 436.125 1074.32 441.308C1074.32 445.394 1071.43 448.883 1066.05 449.58V449.78C1071.93 450.178 1076.42 453.467 1076.42 458.55C1076.42 464.032 1071.43 467.62 1064.86 467.62H1036.75V504.497H1063.36C1073.33 504.497 1081.5 496.424 1081.5 486.358V395.76H1054.99Z" fill="url(#paint1_linear_7203_9886)"/>
<path d="M1059.87 442.503C1059.87 440.111 1058.18 438.516 1056.19 438.217C1055.99 438.217 1055.49 438.117 1055.19 438.117H1045.72V446.888H1055.19C1055.49 446.888 1056.09 446.888 1056.19 446.788C1058.18 446.489 1059.87 444.895 1059.87 442.503Z" fill="url(#paint2_linear_7203_9886)"/>
<path d="M954.724 395.76C944.757 395.76 936.584 403.833 936.584 413.899V458.65C941.667 461.142 946.949 462.736 952.232 462.736C958.511 462.736 961.9 458.949 961.9 453.766V432.637H977.448V453.667C977.448 461.839 972.365 468.517 955.122 468.517C944.657 468.517 936.484 466.225 936.484 466.225V504.397H963.096C973.062 504.397 981.235 496.324 981.235 486.258V395.76H954.724Z" fill="url(#paint3_linear_7203_9886)"/>
<path d="M1004.86 395.76C994.89 395.76 986.717 403.833 986.717 413.899V437.62C991.302 433.733 999.275 431.241 1012.13 431.839C1019.01 432.138 1026.38 434.032 1026.38 434.032V441.707C1022.7 439.813 1018.31 438.119 1012.63 437.72C1002.86 437.022 996.983 441.806 996.983 450.178C996.983 458.65 1002.86 463.434 1012.63 462.637C1018.31 462.238 1022.7 460.444 1026.38 458.65V466.324C1026.38 466.324 1019.11 468.218 1012.13 468.517C999.275 469.115 991.302 466.623 986.717 462.736V504.597H1013.33C1023.29 504.597 1031.47 496.524 1031.47 486.457V395.76H1004.86Z" fill="url(#paint4_linear_7203_9886)"/>
<path d="M719.484 510.826H840.956V389.354H719.484V510.826Z" fill="#006FCF"/>
<path d="M763.487 491.603L811.519 491.705L819.062 483.289L826.659 491.673H840.956V479.395L832.002 469.739L840.956 460.17V448.147L763.487 448.078V491.603Z" fill="white"/>
<path fill-rule="evenodd" clip-rule="evenodd" d="M768.662 486.834V452.87H797.46V460.694H777.986V466.005H796.996V473.699H777.986V478.916H797.46V486.834L768.662 486.834Z" fill="#006FCF"/>
<path d="M829.152 452.871L819.387 463.636L809.65 452.871H797.315L813.251 469.833L797.316 486.834H809.314L819.123 475.961L829.033 486.834H840.955V486.352L825.36 469.833L840.955 453.138V452.871H829.152Z" fill="#006FCF"/>
<path d="M823.353 409.445L819.364 420.603L815.388 409.445H792.335V424.338L785.776 409.445H767.102L747.923 452.971H840.957V409.445H823.353Z" fill="white"/>
<path fill-rule="evenodd" clip-rule="evenodd" d="M771.931 433.7L776.451 422.897L780.967 433.7H771.931ZM770.636 414.176L755.566 448.111H765.903L768.745 441.316H784.151L786.992 448.111H797.585L782.577 414.176H770.636Z" fill="#006FCF"/>
<path d="M797.443 448.104L806.581 448.104V424.795L815.251 448.104H823.464L831.958 424.874V448.184L840.955 448.104V414.17H826.972L819.448 435.082L811.973 414.22L797.443 414.17V448.104Z" fill="#006FCF"/>
<path d="M288.339 409.273C270.917 409.273 255.347 418.27 255.347 434.889C255.347 453.949 282.96 455.266 282.96 464.842C282.96 468.875 278.322 472.484 270.399 472.484C259.157 472.484 250.754 467.441 250.754 467.441L247.158 484.213C247.158 484.213 256.838 488.473 269.689 488.473C288.736 488.473 303.727 479.036 303.727 462.131C303.727 441.989 275.999 440.712 275.999 431.825C275.999 428.667 279.806 425.207 287.705 425.207C296.618 425.207 303.889 428.875 303.889 428.875L307.408 412.677C307.408 412.677 299.495 409.273 288.336 409.273H288.339ZM128.939 410.497L128.517 412.941C128.517 412.941 135.846 414.277 142.448 416.944C150.949 420 151.553 421.781 152.985 427.306L168.584 487.211H189.496L221.712 410.497H200.849L180.148 462.655L171.701 418.442C170.928 413.382 167.003 410.494 162.201 410.494H128.942L128.939 410.497ZM230.102 410.497L213.737 487.211H233.632L249.938 410.497H230.102ZM341.063 410.497C336.266 410.497 333.724 413.056 331.86 417.526L302.712 487.211H323.575L327.611 475.596H353.027L355.481 487.211H373.89L357.832 410.497H341.063ZM343.777 431.223L349.962 460.01H333.395L343.78 431.223H343.777Z" fill="#1434CB"/>
<path d="M497.401 508.712V500.773C497.401 497.736 495.551 495.748 492.376 495.748C490.788 495.748 489.062 496.272 487.875 497.998C486.95 496.549 485.624 495.748 483.635 495.748C482.31 495.748 480.984 496.148 479.936 497.597V496.01H477.161V508.712H479.936V501.698C479.936 499.447 481.123 498.384 482.973 498.384C484.822 498.384 485.747 499.571 485.747 501.698V508.712H488.522V501.698C488.522 499.447 489.848 498.384 491.559 498.384C493.409 498.384 494.333 499.571 494.333 501.698V508.712H497.401ZM538.559 496.01H534.058V492.171H531.283V496.01H528.771V498.522H531.283V504.349C531.283 507.263 532.47 508.974 535.646 508.974C536.833 508.974 538.158 508.573 539.083 508.049L538.282 505.659C537.48 506.184 536.555 506.322 535.892 506.322C534.567 506.322 534.042 505.521 534.042 504.21V498.522H538.544V496.01H538.559ZM562.113 495.732C560.525 495.732 559.462 496.534 558.799 497.582V495.994H556.024V508.696H558.799V501.544C558.799 499.432 559.724 498.229 561.45 498.229C561.974 498.229 562.637 498.368 563.177 498.491L563.978 495.84C563.423 495.732 562.637 495.732 562.113 495.732ZM526.52 497.058C525.194 496.133 523.344 495.732 521.356 495.732C518.18 495.732 516.069 497.32 516.069 499.833C516.069 501.944 517.656 503.147 520.431 503.532L521.757 503.671C523.206 503.933 524.007 504.334 524.007 504.997C524.007 505.922 522.944 506.584 521.094 506.584C519.244 506.584 517.78 505.922 516.855 505.259L515.529 507.371C516.978 508.434 518.967 508.958 520.955 508.958C524.655 508.958 526.782 507.232 526.782 504.858C526.782 502.607 525.056 501.42 522.42 501.02L521.094 500.881C519.907 500.742 518.982 500.48 518.982 499.694C518.982 498.769 519.907 498.245 521.371 498.245C522.959 498.245 524.547 498.908 525.348 499.308L526.52 497.058ZM600.342 495.732C598.755 495.732 597.691 496.534 597.028 497.582V495.994H594.253V508.696H597.028V501.544C597.028 499.432 597.953 498.229 599.679 498.229C600.204 498.229 600.866 498.368 601.406 498.491L602.208 495.871C601.668 495.732 600.882 495.732 600.342 495.732ZM564.888 502.361C564.888 506.199 567.539 508.974 571.64 508.974C573.489 508.974 574.815 508.573 576.141 507.525L574.815 505.274C573.751 506.076 572.703 506.461 571.501 506.461C569.25 506.461 567.663 504.873 567.663 502.361C567.663 499.971 569.25 498.384 571.501 498.26C572.688 498.26 573.751 498.661 574.815 499.447L576.141 497.197C574.815 496.133 573.489 495.748 571.64 495.748C567.539 495.732 564.888 498.522 564.888 502.361ZM590.554 502.361V496.01H587.779V497.597C586.854 496.41 585.529 495.748 583.802 495.748C580.226 495.748 577.451 498.522 577.451 502.361C577.451 506.199 580.226 508.974 583.802 508.974C585.652 508.974 586.978 508.311 587.779 507.124V508.712H590.554V502.361ZM580.365 502.361C580.365 500.11 581.814 498.26 584.203 498.26C586.453 498.26 588.041 499.987 588.041 502.361C588.041 504.611 586.453 506.461 584.203 506.461C581.829 506.322 580.365 504.596 580.365 502.361ZM547.161 495.732C543.461 495.732 540.81 498.384 540.81 502.345C540.81 506.322 543.461 508.958 547.299 508.958C549.149 508.958 550.999 508.434 552.463 507.232L551.138 505.243C550.074 506.045 548.748 506.569 547.438 506.569C545.712 506.569 544.001 505.767 543.6 503.532H552.987C552.987 503.131 552.987 502.869 552.987 502.469C553.111 498.384 550.721 495.732 547.161 495.732ZM547.161 498.122C548.887 498.122 550.074 499.185 550.336 501.158H543.723C543.985 499.447 545.172 498.122 547.161 498.122ZM616.096 502.361V490.984H613.322V497.597C612.397 496.41 611.071 495.748 609.345 495.748C605.768 495.748 602.994 498.522 602.994 502.361C602.994 506.199 605.768 508.974 609.345 508.974C611.194 508.974 612.52 508.311 613.322 507.124V508.712H616.096V502.361ZM605.907 502.361C605.907 500.11 607.356 498.26 609.745 498.26C611.996 498.26 613.584 499.987 613.584 502.361C613.584 504.611 611.996 506.461 609.745 506.461C607.356 506.322 605.907 504.596 605.907 502.361ZM513.016 502.361V496.01H510.242V497.597C509.317 496.41 507.991 495.748 506.265 495.748C502.688 495.748 499.914 498.522 499.914 502.361C499.914 506.199 502.688 508.974 506.265 508.974C508.114 508.974 509.44 508.311 510.242 507.124V508.712H513.016V502.361ZM502.704 502.361C502.704 500.11 504.153 498.26 506.542 498.26C508.793 498.26 510.38 499.987 510.38 502.361C510.38 504.611 508.793 506.461 506.542 506.461C504.153 506.322 502.704 504.596 502.704 502.361Z" fill="black"/>
<path d="M567.277 399.541H525.595V474.427H567.277V399.541Z" fill="#FF5A00"/>
<path d="M528.37 436.984C528.37 421.769 535.522 408.266 546.498 399.541C538.42 393.19 528.231 389.352 517.117 389.352C490.788 389.352 469.484 410.655 469.484 436.984C469.484 463.313 490.788 484.616 517.117 484.616C528.231 484.616 538.42 480.778 546.498 474.427C535.507 465.825 528.37 452.198 528.37 436.984Z" fill="#EB001B"/>
<path d="M623.51 436.984C623.51 463.313 602.207 484.616 575.878 484.616C564.764 484.616 554.575 480.778 546.497 474.427C557.611 465.687 564.625 452.198 564.625 436.984C564.625 421.769 557.473 408.266 546.497 399.541C554.559 393.19 564.748 389.352 575.863 389.352C602.207 389.352 623.51 410.794 623.51 436.984Z" fill="#F79E1B"/>
<path d="M1475.08 396.075C1487.78 395.651 1500.18 403.992 1503.7 416.377C1504.3 418.474 1504.55 422.347 1504.52 424.276L1503.77 424.156C1499.91 422.274 1495.69 421.24 1491.42 420.88L1454.81 420.896L1449.05 457.473L1448.8 457.577C1447.23 469.896 1445.34 482.189 1443.03 494.388L1442.99 494.615H1417.48C1417.48 494.615 1426.84 433.094 1430.59 409.121C1431.27 404.761 1432.05 400.417 1432.84 396.075C1446.67 395.975 1461.21 395.975 1475.08 396.075Z" fill="#002990"/>
<path d="M1504.52 424.279C1521.66 433.156 1523.73 453.522 1512.49 468.214C1505.64 477.163 1495.77 481.782 1484.54 482.163C1479.78 482.324 1474.98 482.02 1470.22 482.174L1464.32 518.969H1438.95C1440.25 510.768 1441.71 502.587 1443.03 494.391C1444.99 482.131 1446.88 469.847 1448.8 457.58L1448.88 457.353H1470.09C1487.5 457.074 1503.64 442.593 1504.28 424.898L1504.52 424.279Z" fill="#60CCFE"/>
<path d="M1504.52 424.279C1504.33 442.475 1487.4 457.709 1469.48 457.585L1448.8 457.58L1454.59 420.672L1491.44 420.658C1496 421.046 1500.46 422.177 1504.52 424.281L1504.52 424.279Z" fill="#008BFE"/>
<path d="M1254.73 516.573H1191.04C1188.24 516.569 1185.56 515.456 1183.58 513.478C1181.6 511.5 1180.49 508.819 1180.48 506.021V402.184C1180.49 399.386 1181.6 396.704 1183.58 394.725C1185.56 392.747 1188.24 391.635 1191.04 391.633H1254.73C1315.42 391.633 1324.48 430.685 1324.48 453.959C1324.48 494.337 1299.71 516.573 1254.73 516.573ZM1191.04 395.676C1189.31 395.678 1187.66 396.364 1186.44 397.584C1185.22 398.804 1184.53 400.459 1184.53 402.184V506.021C1184.53 507.747 1185.22 509.401 1186.44 510.622C1187.66 511.842 1189.31 512.528 1191.04 512.53H1254.73C1297.11 512.53 1320.44 491.743 1320.44 453.959C1320.44 403.245 1279.28 395.676 1254.73 395.676H1191.04Z" fill="black"/>
<path d="M1219.84 412.248V502.789H1259.27C1295.07 502.789 1310.6 482.553 1310.6 454.046C1310.6 426.707 1295.07 405.453 1259.27 405.453H1226.68C1224.87 405.453 1223.14 406.168 1221.86 407.441C1220.58 408.715 1219.85 410.443 1219.84 412.248Z" fill="#CC0066"/>
<path d="M1234.83 442.218C1236.1 442.208 1237.36 442.424 1238.56 442.856C1239.68 443.275 1240.7 443.936 1241.54 444.791C1242.42 445.705 1243.1 446.794 1243.52 447.988C1244.02 449.437 1244.27 450.964 1244.24 452.497C1244.25 453.916 1244.05 455.329 1243.66 456.691C1243.3 457.902 1242.7 459.029 1241.9 460.002C1241.1 460.944 1240.09 461.694 1238.96 462.196C1237.65 462.759 1236.24 463.033 1234.82 462.998H1226.06V442.211L1234.83 442.218ZM1234.5 459.128C1235.16 459.127 1235.8 459.021 1236.42 458.812C1237.05 458.591 1237.62 458.228 1238.08 457.751C1238.6 457.198 1239 456.538 1239.24 455.816C1239.56 454.879 1239.7 453.894 1239.68 452.906C1239.69 451.942 1239.59 450.979 1239.38 450.039C1239.2 449.26 1238.85 448.527 1238.37 447.888C1237.89 447.275 1237.25 446.801 1236.52 446.512C1235.62 446.166 1234.66 446.003 1233.69 446.032H1230.62V459.128H1234.5Z" fill="white"/>
<path d="M1263.05 442.219V446.061H1252.29V450.527H1262.16V454.075H1252.24V459.128H1263.24V462.963H1247.68V442.176L1263.05 442.219Z" fill="white"/>
<path d="M1278.46 442.219L1286.22 463.006H1281.48L1279.91 458.383H1272.14L1270.52 463.006H1265.91L1273.8 442.219H1278.46ZM1278.72 454.956L1276.1 447.337H1276.04L1273.34 454.956H1278.72Z" fill="white"/>
<path d="M1293.46 442.256V459.18H1303.38V463.022H1288.89V442.234L1293.46 442.256Z" fill="white"/>
<path d="M1202.03 468.318C1204.04 468.318 1205.96 469.115 1207.38 470.533C1208.8 471.952 1209.59 473.875 1209.59 475.881V502.79C1205.58 502.79 1201.74 501.197 1198.9 498.362C1196.07 495.527 1194.48 491.682 1194.48 487.672V475.874C1194.48 473.87 1195.28 471.95 1196.69 470.533C1198.11 469.117 1200.03 468.32 1202.03 468.318Z" fill="black"/>
<path d="M1202.03 462.583C1207.54 462.583 1212.01 458.116 1212.01 452.605C1212.01 447.094 1207.54 442.627 1202.03 442.627C1196.52 442.627 1192.05 447.094 1192.05 452.605C1192.05 458.116 1196.52 462.583 1202.03 462.583Z" fill="black"/>
<defs>
<linearGradient id="paint0_linear_7203_9886" x1="1036.83" y1="457.066" x2="1081.62" y2="457.066" gradientUnits="userSpaceOnUse">
<stop stop-color="#007940"/>
<stop offset="0.2285" stop-color="#00873F"/>
<stop offset="0.7433" stop-color="#40A737"/>
<stop offset="1" stop-color="#5CB531"/>
</linearGradient>
<linearGradient id="paint1_linear_7203_9886" x1="1036.83" y1="450.083" x2="1081.62" y2="450.083" gradientUnits="userSpaceOnUse">
<stop stop-color="#007940"/>
<stop offset="0.2285" stop-color="#00873F"/>
<stop offset="0.7433" stop-color="#40A737"/>
<stop offset="1" stop-color="#5CB531"/>
</linearGradient>
<linearGradient id="paint2_linear_7203_9886" x1="1036.83" y1="442.488" x2="1081.62" y2="442.488" gradientUnits="userSpaceOnUse">
<stop stop-color="#007940"/>
<stop offset="0.2285" stop-color="#00873F"/>
<stop offset="0.7433" stop-color="#40A737"/>
<stop offset="1" stop-color="#5CB531"/>
</linearGradient>
<linearGradient id="paint3_linear_7203_9886" x1="936.561" y1="450.083" x2="982.044" y2="450.083" gradientUnits="userSpaceOnUse">
<stop stop-color="#1F286F"/>
<stop offset="0.4751" stop-color="#004E94"/>
<stop offset="0.8261" stop-color="#0066B1"/>
<stop offset="1" stop-color="#006FBC"/>
</linearGradient>
<linearGradient id="paint4_linear_7203_9886" x1="986.458" y1="450.083" x2="1030.63" y2="450.083" gradientUnits="userSpaceOnUse">
<stop stop-color="#6C2C2F"/>
<stop offset="0.1735" stop-color="#882730"/>
<stop offset="0.5731" stop-color="#BE1833"/>
<stop offset="0.8585" stop-color="#DC0436"/>
<stop offset="1" stop-color="#E60039"/>
</linearGradient>
</defs>
</svg>
